<svg width="500" height="400" viewBox="0 0 500 400" fill="none" xmlns="http://www.w3.org/2000/svg">
<g clip-path="url(#clip0)">
<path d="M177.032 397.047H175.188C175.188 374.048 166.057 351.991 149.803 335.728C133.548 319.466 111.503 310.329 88.5162 310.329C65.5293 310.329 43.4839 319.466 27.2298 335.728C10.9756 351.991 1.84409 374.048 1.84409 397.047H0C3.49819e-07 373.559 9.32578 351.032 25.9258 334.424C42.5258 317.815 65.0403 308.484 88.5162 308.484C111.992 308.484 134.507 317.815 151.107 334.424C167.707 351.032 177.032 373.559 177.032 397.047V397.047Z" fill="#3F3D56"/>
<path d="M473.032 400.302H471.188C471.188 377.303 462.057 355.246 445.803 338.983C429.548 322.721 407.503 313.584 384.516 313.584C361.529 313.584 339.484 322.721 323.23 338.983C306.976 355.246 297.844 377.303 297.844 400.302H296C296 376.814 305.326 354.287 321.926 337.679C338.526 321.07 361.04 311.739 384.516 311.739C407.992 311.739 430.507 321.07 447.107 337.679C463.707 354.287 473.032 376.814 473.032 400.302V400.302Z" fill="#3F3D56"/>
<path d="M500 396H0V398H500V396Z" fill="#3F3D56"/>
<path d="M329.802 357.018C343.062 357.018 353.812 346.262 353.812 332.995C353.812 319.727 343.062 308.972 329.802 308.972C316.541 308.972 305.791 319.727 305.791 332.995C305.791 346.262 316.541 357.018 329.802 357.018Z" fill="#6C63FF"/>
<path opacity="0.2" d="M347.662 316.949C349.902 322.191 350.206 328.059 348.519 333.504C346.833 338.949 343.267 343.617 338.457 346.673C333.648 349.73 327.909 350.975 322.266 350.188C316.623 349.4 311.444 346.631 307.654 342.375C309.022 345.577 311.07 348.444 313.655 350.776C316.24 353.108 319.301 354.85 322.626 355.88C325.951 356.911 329.46 357.207 332.911 356.746C336.361 356.285 339.67 355.079 342.608 353.212C345.547 351.345 348.044 348.861 349.928 345.932C351.811 343.003 353.036 339.699 353.516 336.25C353.997 332.801 353.723 329.288 352.712 325.955C351.701 322.623 349.978 319.55 347.662 316.949V316.949Z" fill="black"/>
<path d="M329.867 332.995H329.934L331.12 401.105H328.614L329.867 332.995Z" fill="#3F3D56"/>
<path d="M334.24 370.094L333.687 369.043L329.717 371.133L330.271 372.185L334.24 370.094Z" fill="#3F3D56"/>
<path d="M332.512 340.063C352.677 340.063 369.025 323.707 369.025 303.532C369.025 283.356 352.677 267 332.512 267C312.347 267 296 283.356 296 303.532C296 323.707 312.347 340.063 332.512 340.063Z" fill="#6C63FF"/>
<path opacity="0.2" d="M359.672 279.131C363.078 287.102 363.54 296.025 360.976 304.306C358.412 312.586 352.988 319.684 345.674 324.332C338.361 328.98 329.634 330.874 321.053 329.677C312.471 328.479 304.595 324.268 298.832 317.795C300.913 322.665 304.026 327.024 307.958 330.571C311.889 334.117 316.544 336.766 321.601 338.333C326.657 339.901 331.993 340.35 337.24 339.649C342.487 338.949 347.518 337.115 351.987 334.275C356.455 331.436 360.253 327.658 363.117 323.204C365.981 318.751 367.843 313.727 368.574 308.482C369.305 303.236 368.888 297.894 367.351 292.827C365.814 287.759 363.194 283.086 359.672 279.131V279.131Z" fill="black"/>
<path d="M400.492 297.531H400.593L402.398 401.105H398.586L400.492 297.531Z" fill="#3F3D56"/>
<path d="M407.141 353.947L406.3 352.349L400.264 355.528L401.105 357.127L407.141 353.947Z" fill="#3F3D56"/>
<path d="M24.5813 352.841C37.842 352.841 48.5919 342.085 48.5919 328.817C48.5919 315.55 37.842 304.794 24.5813 304.794C11.3207 304.794 0.570801 315.55 0.570801 328.817C0.570801 342.085 11.3207 352.841 24.5813 352.841Z" fill="#6C63FF"/>
<path opacity="0.2" d="M42.442 312.772C44.6816 318.013 44.9854 323.881 43.2991 329.326C41.6128 334.771 38.0463 339.439 33.2369 342.496C28.4274 345.552 22.6885 346.798 17.0456 346.01C11.4026 345.223 6.22339 342.454 2.43335 338.197C3.80149 341.4 5.84917 344.266 8.4345 346.598C11.0198 348.93 14.081 350.672 17.4059 351.703C20.7309 352.734 24.2401 353.029 27.6904 352.568C31.1407 352.108 34.4496 350.902 37.3879 349.034C40.3262 347.167 42.8237 344.683 44.7072 341.754C46.5907 338.825 47.8152 335.522 48.296 332.072C48.7767 328.623 48.5022 325.11 47.4914 321.778C46.4806 318.445 44.7577 315.372 42.442 312.772H42.442Z" fill="black"/>
<path d="M24.6471 328.818H24.7135L25.9002 396.927H23.394L24.6471 328.818Z" fill="#3F3D56"/>
<path d="M29.0192 365.916L28.4661 364.865L24.497 366.956L25.0502 368.007L29.0192 365.916Z" fill="#3F3D56"/>
<path d="M361.946 86.8875L370.434 80.0951C363.84 79.3672 361.131 82.9654 360.022 85.8133C354.871 83.673 349.263 86.478 349.263 86.478L366.246 92.6466C365.389 90.357 363.898 88.3592 361.946 86.8875V86.8875Z" fill="#3F3D56"/>
<path d="M491.032 156.077L499.52 149.285C492.926 148.557 490.217 152.155 489.108 155.003C483.957 152.863 478.349 155.668 478.349 155.668L495.332 161.836C494.475 159.547 492.983 157.549 491.032 156.077V156.077Z" fill="#3F3D56"/>
<path d="M12.6836 182.888L21.1717 176.095C14.5777 175.367 11.8683 178.965 10.7595 181.813C5.60804 179.673 0 182.478 0 182.478L16.983 188.647C16.1263 186.357 14.6348 184.359 12.6836 182.888V182.888Z" fill="#3F3D56"/>
<path d="M28.3582 256.69L36.8462 249.898C30.2522 249.17 27.5429 252.768 26.4341 255.616C21.2826 253.475 15.6746 256.28 15.6746 256.28L32.6576 262.449C31.8008 260.159 30.3094 258.162 28.3582 256.69V256.69Z" fill="#3F3D56"/>
<path d="M351.804 215.119L360.292 208.327C353.698 207.599 350.988 211.197 349.88 214.045C344.728 211.905 339.12 214.71 339.12 214.71L356.103 220.878C355.246 218.589 353.755 216.591 351.804 215.119Z" fill="#3F3D56"/>
<path d="M97.7365 377.674H40.5698V379.519H49.4851V397.047H51.3292V379.519H86.0552V397.047H87.8993V379.519H97.7365V377.674Z" fill="#3F3D56"/>
<path d="M155.825 385.054C153.569 385.054 151.353 385.649 149.399 386.779C147.416 384.984 144.954 383.804 142.313 383.382C139.672 382.96 136.965 383.314 134.521 384.401C132.077 385.489 130.002 387.262 128.546 389.507C127.09 391.752 126.317 394.371 126.32 397.047H168.688C168.457 393.791 167.001 390.744 164.615 388.519C162.228 386.293 159.088 385.056 155.825 385.054V385.054Z" fill="#3F3D56"/>
<path d="M374.35 385.054C372.094 385.054 369.877 385.649 367.924 386.779C365.94 384.984 363.478 383.804 360.837 383.382C358.196 382.96 355.489 383.314 353.046 384.401C350.602 385.489 348.526 387.262 347.07 389.507C345.614 391.752 344.841 394.371 344.844 397.047H387.212C386.981 393.791 385.526 390.744 383.139 388.519C380.753 386.293 377.612 385.056 374.35 385.054V385.054Z" fill="#3F3D56"/>
<path d="M359.621 388.309C357.365 388.309 355.148 388.904 353.195 390.034C351.211 388.239 348.749 387.059 346.108 386.637C343.467 386.215 340.76 386.569 338.317 387.656C335.873 388.744 333.797 390.517 332.341 392.762C330.885 395.007 330.112 397.626 330.115 400.302H372.483C372.252 397.046 370.797 393.999 368.41 391.774C366.024 389.549 362.883 388.311 359.621 388.309V388.309Z" fill="#3F3D56"/>
<path d="M449.981 388.309C447.725 388.309 445.508 388.904 443.555 390.034C441.571 388.239 439.11 387.059 436.468 386.637C433.827 386.215 431.121 386.569 428.677 387.656C426.233 388.744 424.157 390.517 422.702 392.762C421.246 395.007 420.473 397.626 420.476 400.302H462.843C462.612 397.046 461.157 393.999 458.771 391.774C456.384 389.549 453.243 388.311 449.981 388.309V388.309Z" fill="#3F3D56"/>
<path d="M118.944 332.47H104.191V347.23H111.03V396.966H112.874V347.23H118.944V332.47Z" fill="#3F3D56"/>
<path d="M97.8491 372.154H40.6824V373.999H97.8491V372.154Z" fill="#3F3D56"/>
<path d="M97.8491 367.541H40.6824V369.386H97.8491V367.541Z" fill="#3F3D56"/>
<path d="M97.8491 362.929H40.6824V364.774H97.8491V362.929Z" fill="#3F3D56"/>
</g>
<defs>
<clipPath id="clip0">
<rect width="500" height="400" fill="white"/>
</clipPath>
</defs>
</svg>
