<svg width="819" height="441" viewBox="0 0 819 441" fill="none" xmlns="http://www.w3.org/2000/svg">
<g clip-path="url(#clip0)">
<path d="M177.032 440.047H175.188C175.188 417.048 166.057 394.991 149.803 378.728C133.549 362.466 111.503 353.329 88.5163 353.329C65.5294 353.329 43.484 362.466 27.2298 378.728C10.9756 394.991 1.84413 417.048 1.84413 440.047H4.57764e-05C4.61262e-05 416.559 9.32582 394.032 25.9258 377.424C42.5258 360.815 65.0403 351.484 88.5163 351.484C111.992 351.484 134.507 360.815 151.107 377.424C167.707 394.032 177.032 416.559 177.032 440.047Z" fill="#3F3D56"/>
<path d="M818.775 440.047H816.931C816.931 417.048 807.799 394.991 791.545 378.728C775.291 362.466 753.246 353.329 730.259 353.329C707.272 353.329 685.227 362.466 668.972 378.728C652.718 394.991 643.587 417.048 643.587 440.047H641.743C641.743 416.559 651.068 394.032 667.668 377.424C684.268 360.815 706.783 351.484 730.259 351.484C753.735 351.484 776.249 360.815 792.849 377.424C809.449 394.032 818.775 416.559 818.775 440.047Z" fill="#3F3D56"/>
<path d="M602.095 228.788H600.251C600.251 141.294 529.106 70.1123 441.659 70.1123C354.211 70.1123 283.068 141.294 283.068 228.788H281.223C281.223 140.276 353.195 68.2673 441.659 68.2673C530.124 68.2673 602.095 140.276 602.095 228.788Z" fill="#3F3D56"/>
<path d="M134.157 72.8799C154.272 72.8799 170.578 56.5652 170.578 36.44C170.578 16.3147 154.272 0 134.157 0C114.043 0 97.7366 16.3147 97.7366 36.44C97.7366 56.5652 114.043 72.8799 134.157 72.8799Z" fill="#DD2222"/>
<path d="M141.894 287.261L204.465 212.705H327.483L402.661 285.969L401.143 286.946H401.685V439.334H141.98V286.946L141.894 287.261Z" fill="#3F3D56"/>
<path d="M179.54 254.848H193.723V205.724H179.54V254.848Z" fill="#3F3D56"/>
<path d="M203.49 211.728L280.619 302.203V439.334H141.98V284.992L203.49 211.728Z" fill="#6C63FF"/>
<path d="M262.795 320.159H234.481V349.124H262.795V320.159Z" fill="#3F3D56"/>
<path d="M262.795 359.572H234.481V388.538H262.795V359.572Z" fill="#3F3D56"/>
<path d="M262.795 320.159H234.481V349.124H262.795V320.159Z" fill="white"/>
<path d="M262.795 359.572H234.481V388.538H262.795V359.572Z" fill="white"/>
<path d="M223.637 320.159H195.324V349.124H223.637V320.159Z" fill="#3F3D56"/>
<path d="M223.637 359.572H195.324V388.538H223.637V359.572Z" fill="#3F3D56"/>
<path d="M223.637 320.159H195.324V349.124H223.637V320.159Z" fill="white"/>
<path d="M223.637 359.572H195.324V388.538H223.637V359.572Z" fill="white"/>
<path d="M184.48 320.159H156.166V349.124H184.48V320.159Z" fill="#3F3D56"/>
<path d="M184.48 359.572H156.166V388.538H184.48V359.572Z" fill="#3F3D56"/>
<path d="M184.48 320.159H156.166V349.124H184.48V320.159Z" fill="white"/>
<path d="M184.48 359.572H156.166V388.538H184.48V359.572Z" fill="white"/>
<path d="M460.1 36.9012H447.191V69.1898H460.1V36.9012Z" fill="#6C63FF"/>
<path d="M459.178 66.4222H349.455V440.047H459.178V66.4222Z" fill="#6C63FF"/>
<path d="M503.436 66.4222H459.178V440.047H503.436V66.4222Z" fill="#3F3D56"/>
<path d="M385.875 98.7108H369.279V115.316H385.875V98.7108Z" fill="white"/>
<path d="M412.615 98.7108H396.018V115.316H412.615V98.7108Z" fill="white"/>
<path d="M439.354 98.7108H422.757V115.316H439.354V98.7108Z" fill="white"/>
<path d="M386.336 136.535H369.74V153.14H386.336V136.535Z" fill="white"/>
<path d="M413.076 136.535H396.479V153.14H413.076V136.535Z" fill="white"/>
<path d="M439.815 136.535H423.218V153.14H439.815V136.535Z" fill="white"/>
<path d="M386.797 174.358H370.201V190.964H386.797V174.358Z" fill="white"/>
<path d="M413.537 174.358H396.94V190.964H413.537V174.358Z" fill="white"/>
<path d="M440.276 174.358H423.679V190.964H440.276V174.358Z" fill="white"/>
<path d="M387.258 212.182H370.662V228.788H387.258V212.182Z" fill="white"/>
<path d="M413.998 212.182H397.401V228.788H413.998V212.182Z" fill="white"/>
<path d="M440.737 212.182H424.14V228.788H440.737V212.182Z" fill="white"/>
<path d="M387.719 250.006H371.123V266.611H387.719V250.006Z" fill="white"/>
<path d="M414.459 250.006H397.862V266.611H414.459V250.006Z" fill="white"/>
<path d="M441.198 250.006H424.601V266.611H441.198V250.006Z" fill="white"/>
<path d="M388.18 287.83H371.584V304.435H388.18V287.83Z" fill="white"/>
<path d="M414.92 287.83H398.323V304.435H414.92V287.83Z" fill="white"/>
<path d="M441.659 287.83H425.062V304.435H441.659V287.83Z" fill="white"/>
<path d="M388.642 325.653H372.045V342.259H388.642V325.653Z" fill="white"/>
<path d="M415.381 325.653H398.784V342.259H415.381V325.653Z" fill="white"/>
<path d="M442.12 325.653H425.523V342.259H442.12V325.653Z" fill="white"/>
<path d="M389.103 363.477H372.506V380.083H389.103V363.477Z" fill="white"/>
<path d="M415.842 363.477H399.245V380.083H415.842V363.477Z" fill="white"/>
<path d="M415.842 407.759H399.245V439.125H415.842V407.759Z" fill="white"/>
<path d="M442.581 363.477H425.984V380.083H442.581V363.477Z" fill="white"/>
<path d="M466.554 36.9012H459.178V68.2673H466.554V36.9012Z" fill="#3F3D56"/>
<path d="M598.406 201.112H585.498V220.248H598.406V201.112Z" fill="#6C63FF"/>
<path d="M597.484 218.608H487.761V440.047H597.484V218.608Z" fill="#6C63FF"/>
<path d="M641.742 218.608H597.484V440.047H641.742V218.608Z" fill="#3F3D56"/>
<path d="M526.026 250.006H509.429V266.611H526.026V250.006Z" fill="white"/>
<path d="M552.765 250.006H536.168V266.611H552.765V250.006Z" fill="white"/>
<path d="M579.505 250.006H562.908V266.611H579.505V250.006Z" fill="white"/>
<path d="M526.487 287.83H509.89V304.435H526.487V287.83Z" fill="white"/>
<path d="M553.226 287.83H536.63V304.435H553.226V287.83Z" fill="white"/>
<path d="M579.966 287.83H563.369V304.435H579.966V287.83Z" fill="white"/>
<path d="M526.948 325.653H510.351V342.259H526.948V325.653Z" fill="white"/>
<path d="M553.687 325.653H537.091V342.259H553.687V325.653Z" fill="white"/>
<path d="M580.427 325.653H563.83V342.259H580.427V325.653Z" fill="white"/>
<path d="M527.409 363.477H510.812V380.083H527.409V363.477Z" fill="white"/>
<path d="M554.148 363.477H537.552V380.083H554.148V363.477Z" fill="white"/>
<path d="M554.148 407.759H537.552V439.125H554.148V407.759Z" fill="white"/>
<path d="M580.888 363.477H564.291V380.083H580.888V363.477Z" fill="white"/>
<path d="M604.861 201.112H597.484V219.702H604.861V201.112Z" fill="#3F3D56"/>
<path d="M819 438.933H0.225067V441H819V438.933Z" fill="#3F3D56"/>
<path d="M675.544 396.763C688.805 396.763 699.555 386.007 699.555 372.74C699.555 359.472 688.805 348.717 675.544 348.717C662.284 348.717 651.534 359.472 651.534 372.74C651.534 386.007 662.284 396.763 675.544 396.763Z" fill="#6C63FF"/>
<path opacity="0.2" d="M693.405 356.694C695.645 361.936 695.948 367.804 694.262 373.249C692.576 378.694 689.009 383.362 684.2 386.418C679.39 389.475 673.651 390.72 668.009 389.933C662.366 389.145 657.186 386.376 653.396 382.12C654.765 385.322 656.812 388.189 659.397 390.521C661.983 392.853 665.044 394.595 668.369 395.625C671.694 396.656 675.203 396.952 678.653 396.491C682.104 396.03 685.413 394.824 688.351 392.957C691.289 391.09 693.787 388.606 695.67 385.677C697.554 382.748 698.778 379.444 699.259 375.995C699.74 372.546 699.465 369.033 698.454 365.7C697.443 362.368 695.721 359.295 693.405 356.694Z" fill="black"/>
<path d="M675.61 372.74H675.676L676.863 440.85H674.357L675.61 372.74Z" fill="#3F3D56"/>
<path d="M679.982 409.839L679.429 408.788L675.46 410.878L676.013 411.93L679.982 409.839Z" fill="#3F3D56"/>
<path d="M746.135 373.808C766.3 373.808 782.647 357.452 782.647 337.277C782.647 317.101 766.3 300.745 746.135 300.745C725.97 300.745 709.623 317.101 709.623 337.277C709.623 357.452 725.97 373.808 746.135 373.808Z" fill="#6C63FF"/>
<path opacity="0.2" d="M773.295 312.876C776.701 320.847 777.163 329.77 774.599 338.051C772.034 346.331 766.611 353.429 759.297 358.077C751.983 362.725 743.256 364.619 734.675 363.422C726.094 362.224 718.218 358.013 712.455 351.54C714.535 356.41 717.649 360.769 721.58 364.316C725.512 367.862 730.167 370.511 735.223 372.078C740.279 373.646 745.616 374.095 750.862 373.394C756.109 372.694 761.141 370.86 765.609 368.02C770.078 365.181 773.875 361.403 776.74 356.949C779.604 352.496 781.466 347.472 782.197 342.227C782.928 336.981 782.511 331.639 780.973 326.572C779.436 321.504 776.816 316.831 773.295 312.876Z" fill="black"/>
<path d="M746.235 337.276H746.335L748.141 440.85H744.329L746.235 337.276Z" fill="#3F3D56"/>
<path d="M752.883 393.692L752.042 392.094L746.007 395.273L746.848 396.872L752.883 393.692Z" fill="#3F3D56"/>
<path d="M24.5814 395.841C37.8421 395.841 48.592 385.085 48.592 371.817C48.592 358.55 37.8421 347.794 24.5814 347.794C11.3208 347.794 0.570862 358.55 0.570862 371.817C0.570862 385.085 11.3208 395.841 24.5814 395.841Z" fill="#6C63FF"/>
<path opacity="0.2" d="M42.4419 355.772C44.6816 361.013 44.9854 366.881 43.2991 372.326C41.6128 377.771 38.0463 382.439 33.2368 385.496C28.4274 388.552 22.6885 389.798 17.0455 389.01C11.4026 388.223 6.22336 385.454 2.43332 381.197C3.80146 384.4 5.84913 387.266 8.43447 389.598C11.0198 391.93 14.081 393.672 17.4059 394.703C20.7308 395.734 24.24 396.029 27.6904 395.568C31.1407 395.108 34.4496 393.902 37.3879 392.034C40.3262 390.167 42.8236 387.683 44.7071 384.754C46.5906 381.825 47.8152 378.522 48.2959 375.072C48.7767 371.623 48.5022 368.11 47.4913 364.778C46.4805 361.445 44.7576 358.372 42.442 355.772H42.4419Z" fill="black"/>
<path d="M24.6472 371.818H24.7135L25.9002 439.927H23.3941L24.6472 371.818Z" fill="#3F3D56"/>
<path d="M29.0193 408.916L28.4662 407.865L24.4971 409.956L25.0502 411.007L29.0193 408.916Z" fill="#3F3D56"/>
<path d="M559.14 34.4434L567.628 27.651C561.034 26.9231 558.325 30.5212 557.216 33.3692C552.064 31.2289 546.456 34.0338 546.456 34.0338L563.439 40.2025C562.582 37.9129 561.091 35.9151 559.14 34.4434Z" fill="#3F3D56"/>
<path d="M133.156 68.577L141.644 61.7846C135.05 61.0568 132.34 64.6549 131.231 67.5028C126.08 65.3625 120.472 68.1675 120.472 68.1675L137.455 74.3362C136.598 72.0465 135.107 70.0488 133.156 68.577Z" fill="#3F3D56"/>
<path d="M688.226 103.633L696.714 96.8408C690.12 96.1129 687.411 99.711 686.302 102.559C681.15 100.419 675.542 103.224 675.542 103.224L692.525 109.392C691.669 107.103 690.177 105.105 688.226 103.633Z" fill="#3F3D56"/>
<path d="M203.231 50.1264L211.719 43.334C205.125 42.6061 202.416 46.2043 201.307 49.0522C196.155 46.9119 190.547 49.7168 190.547 49.7168L207.53 55.8855C206.673 53.5959 205.182 51.5981 203.231 50.1264Z" fill="#3F3D56"/>
<path d="M218.906 123.929L227.394 117.136C220.8 116.409 218.09 120.007 216.981 122.855C211.83 120.714 206.222 123.519 206.222 123.519L223.205 129.688C222.348 127.398 220.857 125.401 218.906 123.929Z" fill="#3F3D56"/>
<path d="M548.997 162.675L557.485 155.883C550.891 155.155 548.182 158.753 547.073 161.601C541.922 159.461 536.314 162.266 536.314 162.266L553.297 168.434C552.44 166.145 550.949 164.147 548.997 162.675Z" fill="#3F3D56"/>
<path d="M97.7366 420.674H40.5699V422.519H49.4852V440.047H51.3293V422.519H86.0553V440.047H87.8994V422.519H97.7366V420.674Z" fill="#3F3D56"/>
<path d="M155.825 428.054C153.569 428.054 151.352 428.649 149.399 429.779C147.416 427.984 144.954 426.804 142.313 426.382C139.672 425.96 136.965 426.314 134.521 427.401C132.077 428.489 130.002 430.262 128.546 432.507C127.09 434.752 126.317 437.371 126.32 440.047H168.688C168.457 436.791 167.001 433.744 164.615 431.519C162.228 429.293 159.088 428.056 155.825 428.054Z" fill="#3F3D56"/>
<path d="M374.35 428.054C372.093 428.054 369.877 428.649 367.924 429.779C365.94 427.984 363.478 426.804 360.837 426.382C358.196 425.96 355.489 426.314 353.046 427.401C350.602 428.489 348.526 430.262 347.07 432.507C345.614 434.752 344.841 437.371 344.844 440.047H387.212C386.981 436.791 385.526 433.744 383.139 431.519C380.753 429.293 377.612 428.056 374.35 428.054Z" fill="#3F3D56"/>
<path d="M517.267 428.054C515.01 428.054 512.794 428.649 510.84 429.779C508.857 427.984 506.395 426.804 503.754 426.382C501.113 425.96 498.406 426.314 495.962 427.401C493.519 428.489 491.443 430.262 489.987 432.507C488.531 434.752 487.758 437.371 487.761 440.047H530.129C529.898 436.791 528.443 433.744 526.056 431.519C523.669 429.293 520.529 428.056 517.267 428.054Z" fill="#3F3D56"/>
<path d="M705.364 428.054C703.107 428.054 700.891 428.649 698.937 429.779C696.954 427.984 694.492 426.804 691.851 426.382C689.21 425.96 686.503 426.314 684.059 427.401C681.616 428.489 679.54 430.262 678.084 432.507C676.628 434.752 675.855 437.371 675.858 440.047H718.226C717.995 436.791 716.54 433.744 714.153 431.519C711.766 429.293 708.626 428.056 705.364 428.054Z" fill="#3F3D56"/>
<path d="M795.724 428.054C793.468 428.054 791.251 428.649 789.298 429.779C787.314 427.984 784.852 426.804 782.211 426.382C779.57 425.96 776.863 426.314 774.42 427.401C771.976 428.489 769.9 430.262 768.444 432.507C766.988 434.752 766.215 437.371 766.219 440.047H808.586C808.355 436.791 806.9 433.744 804.513 431.519C802.127 429.293 798.986 428.056 795.724 428.054Z" fill="#3F3D56"/>
<path d="M118.944 375.47H104.191V390.23H111.03V439.966H112.874V390.23H118.944V375.47Z" fill="#3F3D56"/>
<path d="M97.8492 415.154H40.6825V416.999H97.8492V415.154Z" fill="#3F3D56"/>
<path d="M97.8492 410.541H40.6825V412.386H97.8492V410.541Z" fill="#3F3D56"/>
<path d="M97.8492 405.929H40.6825V407.774H97.8492V405.929Z" fill="#3F3D56"/>
</g>
<defs>
<clipPath id="clip0">
<rect width="819" height="441" fill="white"/>
</clipPath>
</defs>
</svg>
