<svg width="90" height="90" viewBox="0 0 90 90" fill="none" xmlns="http://www.w3.org/2000/svg">
<path d="M44.4224 0C43.2992 0 42.176 0 41.0528 0.1875C27.9487 1.6875 17.4655 11.625 15.4063 24.5625C14.0959 32.8125 15.9679 40.875 20.8351 47.25C26.4511 54.5625 29.2591 63 29.2591 71.25V82.5C29.2591 86.625 32.6288 90 36.7472 90H52.0976C56.216 90 59.5856 86.625 59.5856 82.5V71.25C59.5856 62.625 62.3936 54.375 67.448 48C71.5664 42.75 74 36.1875 74 29.4375C74 13.3125 60.7088 0 44.4224 0ZM55.8416 82.5C55.8416 84.5625 54.1568 86.25 52.0976 86.25H36.7472C34.688 86.25 33.0032 84.5625 33.0032 82.5V75H55.8416V82.5ZM64.64 45.75C59.024 52.6875 56.0288 61.6875 55.8416 71.0625H46.4816C47.2304 63.1875 49.2896 55.6875 52.6592 49.6875C55.0928 45.375 56.4032 40.125 56.4032 34.6875C56.4032 33.5625 55.6544 32.8125 54.5312 32.8125C53.408 32.8125 52.6592 33.5625 52.6592 34.6875C52.6592 39.5625 51.536 44.0625 49.4768 48C47.4176 51.75 45.7328 56.0625 44.6096 60.5625C43.4864 56.0625 41.8016 51.75 39.7424 48C37.6832 44.25 36.56 39.5625 36.56 34.6875C36.56 33.5625 35.8112 32.8125 34.688 32.8125C33.5648 32.8125 32.816 33.5625 32.816 34.6875C32.816 40.3125 34.1264 45.375 36.56 49.6875C39.9296 55.6875 41.9888 63.1875 42.7376 71.0625H33.3776C33.3776 62.0625 30.1951 53.0625 24.2047 45C19.8991 39.375 18.2143 32.25 19.3375 25.125C21.2095 13.875 30.3824 5.0625 41.8016 3.75C42.3632 3.75 43.4864 3.75 44.4224 3.75C58.6496 3.75 70.256 15.375 70.256 29.625C70.256 35.625 68.1968 41.25 64.64 45.75Z" fill="#004477"/>
</svg>
