<svg width="1440" height="654" viewBox="0 0 1440 654" fill="none" xmlns="http://www.w3.org/2000/svg">
<path fill-rule="evenodd" clip-rule="evenodd" d="M86.1381 121.981C-8.02301 123.299 -57.2188 140.604 -116.248 206.698C-175.277 272.792 -40.3532 269.14 -40.3532 303.465C-40.3532 337.79 -156.009 339.232 -167.253 357.125C-178.497 375.018 -171.529 421.777 -22.5508 409.726C126.428 397.676 169.12 347.996 149.444 330.469C129.767 312.941 168.592 286.668 196.701 273.522C224.81 260.376 222.136 249.642 187.86 202.663C153.583 155.683 180.3 120.663 86.1381 121.981ZM1257.19 364.082C1163.03 365.4 1113.84 382.705 1054.81 448.799C995.778 514.893 1125.77 481.298 1125.77 515.623C1125.77 549.948 1015.05 581.334 1003.8 599.226C992.56 617.119 999.526 663.878 1148.5 651.828C1297.48 639.777 1511.8 577.299 1492.13 559.772C1472.45 542.244 1376.51 523.036 1320.66 476.515C1264.81 429.994 1351.36 362.764 1257.19 364.082ZM339.797 352.963C273.239 378.955 267.542 404.686 340.032 468.713C412.523 532.741 208.004 536.825 268.071 561.929C328.138 587.033 521.794 523.936 544.881 540.011C567.97 556.085 675.982 640.705 763.85 592.295C851.719 543.885 796.003 496.204 750.941 488.616C705.877 481.026 594.946 475.659 592.499 458.574C590.052 441.489 662.662 410.182 555.381 384.934C448.101 359.685 406.356 326.972 339.797 352.963ZM757.729 267.198C849.559 275.423 849.643 257.994 950.555 200.107C1051.47 142.219 1227.66 213.324 1250.45 180.169C1273.25 147.014 1104.9 108.169 1127.64 92.0196C1150.39 75.8705 1205.71 3.60801 1053.81 0.22079C901.905 -3.16679 830.754 73.1044 838.118 92.0196C845.484 110.935 793.611 152.633 757.729 162.495C721.848 172.358 513.891 204.218 515.8 253.055C517.709 301.891 665.9 258.974 757.729 267.198Z" fill="#6C63FF" fill-opacity="0.1"/>
</svg>
