<svg width="90" height="90" viewBox="0 0 90 90" fill="none" xmlns="http://www.w3.org/2000/svg">
<path d="M89.6049 26.2315C89.4175 25.4791 88.8554 24.7267 87.9184 24.5386C75.1763 22.8456 63.5585 26.7958 56.0631 35.0726C51.1911 40.7158 48.3804 48.2401 48.0056 56.3287C47.8182 56.1406 47.8182 55.9525 47.6308 55.7644C41.8219 47.8639 41.8219 34.8845 47.6308 26.9839C48.193 26.2315 48.0056 24.9148 47.2561 24.3504C46.5065 23.7861 45.1948 23.9742 44.6327 24.7267C43.321 26.4196 42.3841 28.3007 41.6345 30.3699C41.0724 22.8456 38.2616 16.2618 33.7644 10.9948C26.4564 2.52996 14.8386 -1.4203 1.90905 0.460781C1.15951 0.648888 0.597356 1.40132 0.409972 2.15375C-1.0891 13.4402 1.53428 23.7861 8.09273 31.1223C14.2764 38.2704 23.4582 42.2207 33.9518 42.2207C35.8256 42.2207 37.8868 42.0326 39.7607 41.8444C39.7607 47.8639 41.4471 53.6952 44.8201 58.2098C50.629 66.1103 50.629 79.0898 44.8201 86.9903C44.2579 87.7427 44.4453 89.0595 45.1948 89.6238C45.5696 89.8119 45.9444 90 46.3191 90C46.8813 90 47.4434 89.8119 47.8182 89.2476C52.5028 83.04 53.8145 74.0108 52.128 66.1103C53.4397 66.2984 54.7514 66.2984 56.0631 66.2984C66.5566 66.2984 75.7385 62.3482 81.9221 55.2001C88.2932 47.6758 91.104 37.518 89.6049 26.2315ZM33.9518 38.4585C24.5826 38.4585 16.525 35.0726 10.9035 28.6769C5.46935 22.4694 3.03335 13.8164 3.97027 4.03482C15.0259 2.90618 24.7699 6.48022 30.9536 13.6283C35.8256 19.2715 38.2616 26.7958 38.0742 35.0726L20.2727 17.2024C19.5232 16.4499 18.3989 16.4499 17.6493 17.2024C16.8998 17.9548 16.8998 19.0834 17.6493 19.8359L36.013 38.2704C35.2635 38.2704 34.5139 38.4585 33.9518 38.4585ZM79.1114 52.7547C73.3025 59.3385 64.4954 62.9125 54.564 62.3482L71.0539 45.7947C71.8034 45.0423 71.8034 43.9136 71.0539 43.1612C70.3043 42.4088 69.18 42.4088 68.4305 43.1612L51.9407 59.7147C51.5659 51.0617 54.0019 43.3493 59.0613 37.7061C65.2449 30.558 74.9889 26.9839 86.0446 28.1126C86.9815 37.7061 84.5455 46.359 79.1114 52.7547Z" fill="#004477"/>
</svg>
