<svg width="90" height="90" viewBox="0 0 90 90" fill="none" xmlns="http://www.w3.org/2000/svg">
<path d="M79.78 27.75H73.305C72.195 27.75 71.455 28.5 71.455 29.625V32.8125H66.46V29.625C66.46 28.5 65.72 27.75 64.61 27.75H56.655V21.375H59.985C61.095 21.375 61.835 20.625 61.835 19.5V1.875C61.835 0.75 61.095 0 59.985 0H29.645C28.535 0 27.795 0.75 27.795 1.875V19.3125C27.795 20.4375 28.535 21.1875 29.645 21.1875H32.975V27.5625H25.02C23.91 27.5625 23.17 28.3125 23.17 29.4375V32.625H18.175V29.4375C18.175 28.3125 17.435 27.5625 16.325 27.5625H9.85C8.74 27.5625 8 28.3125 8 29.4375V58.3125C8 59.4375 8.74 60.1875 9.85 60.1875H16.325C17.435 60.1875 18.175 59.4375 18.175 58.3125V43.5H23.17V58.3125C23.17 59.4375 23.91 60.1875 25.02 60.1875H27.98V78.75H27.61C26.5 78.75 25.76 79.5 25.76 80.625V88.125C25.76 89.25 26.5 90 27.61 90H40.005C41.115 90 41.855 89.25 41.855 88.125V80.625C41.855 79.5 41.115 78.75 40.005 78.75H39.635V60.375H50.365V78.75H49.995C48.885 78.75 48.145 79.5 48.145 80.625V88.125C48.145 89.25 48.885 90 49.995 90H62.39C63.5 90 64.24 89.25 64.24 88.125V80.625C64.24 79.5 63.5 78.75 62.39 78.75H62.02V60.375H64.98C66.09 60.375 66.83 59.625 66.83 58.5V43.6875H71.825V58.5C71.825 59.625 72.565 60.375 73.675 60.375H80.15C81.26 60.375 82 59.625 82 58.5V29.625C81.63 28.5 80.705 27.75 79.78 27.75ZM23.17 39.9375H16.325C15.215 39.9375 14.475 40.6875 14.475 41.8125V56.625H11.7V31.5H14.475V34.6875C14.475 35.8125 15.215 36.5625 16.325 36.5625H23.17V39.9375ZM31.495 17.4375V3.75H58.135V17.4375H31.495ZM52.955 21.1875V27.5625H36.675V21.1875H52.955ZM37.97 86.25H29.275V82.5H37.97V86.25ZM31.495 78.75V60.375H35.75V78.75H31.495ZM60.355 86.25H51.66V82.5H60.355V86.25ZM53.88 78.75V60.375H58.135V78.75H53.88ZM62.76 34.6875V56.625H26.87V31.5H62.945V34.6875H62.76ZM77.93 56.625H75.155V41.8125C75.155 40.6875 74.415 39.9375 73.305 39.9375H66.46V36.5625H73.305C74.415 36.5625 75.155 35.8125 75.155 34.6875V31.5H77.93V56.625Z" fill="#004477"/>
<path d="M44.815 35.625C40.19 35.625 36.49 39.375 36.49 44.0625C36.49 48.75 40.19 52.5 44.815 52.5C49.44 52.5 53.14 48.75 53.14 44.0625C53.14 39.375 49.44 35.625 44.815 35.625ZM44.815 48.5625C42.225 48.5625 40.19 46.5 40.19 43.875C40.19 41.25 42.225 39.375 44.815 39.375C47.405 39.375 49.44 41.4375 49.44 44.0625C49.44 46.6875 47.405 48.5625 44.815 48.5625Z" fill="#004477"/>
</svg>
